<?xml version="1.0" encoding="utf-8"?>
<!-- Generator: Adobe Illustrator 21.1.0, SVG Export Plug-In . SVG Version: 6.00 Build 0)  -->
<svg version="1.1" id="Calque_1" xmlns="http://www.w3.org/2000/svg" xmlns:xlink="http://www.w3.org/1999/xlink" x="0px" y="0px"
	 viewBox="0 0 173.1 50.2" style="enable-background:new 0 0 173.1 50.2;" xml:space="preserve">
<style type="text/css">
	.st0{display:none;fill:#4296EC;}
	.st1{display:none;}
	.st2{display:inline;}
	.st3{display:inline;fill:#FFFFFF;}
	.st4{fill:none;}
	.st5{font-family:'Futura-Medium';}
	.st6{font-size:24px;}
	.st7{fill:#FFFFFF;}
</style>
<rect class="st0" width="173.1" height="50.2"/>
<g id="Pelican_Line" class="st1">
	<path class="st2" d="M20.2,43c0.6-0.6,1.3-1.1,1.9-1.7c0.2-0.2,0.4-0.4,0.4-0.6c0-1.7,0-3.3,0-5c-2.9,0-5.8,0-8.7,0
		c-0.3-3.7,0.7-6.9,3.2-9.6c2.4-2.7,5.5-4.1,9.2-4.3c-0.3-0.3-0.4-0.5-0.6-0.6c-1-1-2.1-2-3.1-3.1c-2.1-2.3-2.7-5-1.6-8
		c1.1-2.9,3.3-4.6,6.5-4.9C28,5.1,28.5,5,29.1,5c8.3,0,16.7,0,25,0c0.6,0,1,0.1,1.4,0.6c0.5,0.6,1.1,1,1.6,1.6c0,0.1,0,0.1-0.1,0.2
		c-0.3,0-0.6,0-0.9,0c-9.3,0-18.6,0-27.9,0c-2.9,0-5.1,1.9-5.4,4.8c-0.2,1.6,0.4,3,1.5,4.2c1.2,1.2,2.3,2.4,3.5,3.5
		c0.8,0.8,1.1,1.6,0.7,2.7c-0.4,1-1.2,1.4-2.3,1.4c-5.1,0.2-9.5,4.1-10,8.8c0,0.1,0,0.2,0,0.3c2.1,0,4.2,0,6.2,0
		c0.4-1,0.7-2.1,1.2-3c1.7-3.1,4.4-4.7,7.9-4.6c2.7,0,4.9,2.3,4.8,5c0,2.7-2.2,5-4.9,5c-1.9,0-3.8,0-5.7,0c-0.3,0-0.5,0-0.9,0
		c0,1.3,0,2.6,0,3.8c0,1.2,0,2.5,0,3.8c-1.5,0-3,0-4.4,0C20.3,43.1,20.3,43,20.2,43z M25,33.2c2.3,0,4.5,0.1,6.7,0
		c1.4-0.1,2.4-1.4,2.4-2.7c0-1.3-1.1-2.5-2.4-2.6C28.5,27.7,25.5,30,25,33.2z"/>
	<path class="st2" d="M54.8,11.2c-0.5,0-0.8,0-1.1,0c-6.4,0-12.7,0-19.1,0c-0.6,0-1-0.1-1.3-0.5c-0.5-0.6-1.1-1.1-1.8-1.7
		c8.6,0,17,0,25.5,0c0,1.2,0,2.5,0,3.7c0,0.1-0.1,0.3-0.2,0.4c-2.2,2.2-4.4,4.5-6.7,6.6c-4.2,3.9-10.5,3.7-14.6-0.3
		c-1.1-1.1-2.3-2.3-3.4-3.4c-0.8-0.8-1.2-0.9-1.7-0.4c-0.5,0.5-0.4,1,0.4,1.8c2.3,2.3,4.6,4.6,6.9,6.9c2.4,2.5,3.2,5.5,2.2,8.8
		c-0.9,3.3-3.2,5.3-6.5,6.1c-0.6,0.1-1.2,0.2-1.8,0.2c-0.9,0-1.9,0-2.9,0c0,0.5,0,0.9,0,1.5c1.1,0,2.3,0,3.4,0
		c0.4,0,0.8,0.2,1.1,0.5c0.6,0.5,1.2,1.1,1.9,1.8c-3,0-5.8,0-8.7,0c0-2,0-4,0-6.1c1.7,0,3.5,0,5.2,0c1.9,0,3.5-0.8,4.7-2.2
		c2.3-2.6,2.1-6.4-0.3-8.9c-2.4-2.4-4.8-4.8-7.2-7.2c-1.5-1.5-1.4-3.9,0.3-5.1c1.3-1,3.1-0.9,4.3,0.3c1.3,1.3,2.6,2.7,4,4
		c3.2,3,8,3,11.2,0c2-1.9,3.9-3.9,5.8-5.8C54.5,11.9,54.6,11.6,54.8,11.2z"/>
	<path class="st2" d="M29.7,10.4c0,0.9-0.6,1.5-1.5,1.5c-0.8,0-1.4-0.7-1.5-1.5c0-0.8,0.7-1.5,1.5-1.5C29,8.9,29.7,9.5,29.7,10.4z"
		/>
	<path class="st3" d="M25,33.2c0.5-3.2,3.5-5.6,6.7-5.3c1.3,0.1,2.4,1.3,2.4,2.6c0,1.3-1,2.7-2.4,2.7C29.4,33.3,27.2,33.2,25,33.2z"
		/>
</g>
<rect x="66.8" y="15.3" class="st4" width="107" height="24.6"/>
<text transform="matrix(1 0 0 1 66.7723 35.1156)" class="st1 st5 st6">beatitud</text>
<g>
	<path class="st7" d="M55.5,12.6c-0.4-0.4-0.8-0.6-1.4-0.6c0,0,0,0,0,0c-5.8,0-11.7,0-17.4,0c-2.5,0-5,0-7.6,0c-0.5,0-1.1,0-1.7,0.1
		c-3.2,0.4-5.4,2-6.5,5c-1.1,2.9-0.5,5.7,1.7,8c0.7,0.7,1.4,1.4,2,2.1c0.3,0.3,0.7,0.7,1,1c0.1,0.1,0.2,0.2,0.3,0.4
		c0,0.1,0.1,0.1,0.2,0.2c-3.2,0.2-5.9,1.2-8.1,3.2C18,31.9,17.9,32,17.9,32l0,0l0,3.7l0.1-0.1c0,0,0.5-0.7,0.8-1
		c1.9-2.2,4.7-3.5,7.6-3.6c1.2,0,1.9-0.5,2.3-1.4c0.4-1,0.2-1.9-0.7-2.7c-1.2-1.1-2.3-2.3-3.5-3.5c-1.2-1.2-1.7-2.6-1.5-4.2
		c0.3-2.9,2.5-4.8,5.4-4.8c6.9,0,13.7,0,20.6,0l8.6,0C57.4,14.4,55.9,13,55.5,12.6z"/>
	<path class="st7" d="M57.6,15.9H31.9l0.1,0.1c0.2,0.2,0.4,0.4,0.6,0.6c0.4,0.4,0.8,0.8,1.2,1.1c0.4,0.4,0.8,0.6,1.4,0.6
		c0,0,0,0,0,0c5,0,10.1,0,15,0l5.1,0c-0.1,0.1-0.1,0.2-0.1,0.3c-0.1,0.2-0.2,0.4-0.3,0.5c-0.4,0.4-0.8,0.8-1.2,1.2
		c-1.5,1.5-3.1,3.1-4.7,4.6c-3.2,3-7.9,3-11.1,0c-0.9-0.8-1.7-1.7-2.5-2.5c-0.5-0.5-1-1-1.5-1.5c-1.2-1.2-3-1.3-4.4-0.3
		c-0.8,0.6-1.3,1.4-1.3,2.4c-0.1,1,0.3,2,1,2.8c1.7,1.7,5.6,5.6,5.7,5.7l0.2,0.2l3.1-0.2l0.1,0l-0.1-0.1c-1.6-1.6-3.2-3.2-4.7-4.8
		c-0.7-0.7-1.5-1.4-2.2-2.2c-0.5-0.5-0.7-0.8-0.7-1.2c0-0.2,0.1-0.4,0.3-0.6c0.5-0.5,0.9-0.4,1.7,0.4c0.4,0.4,0.7,0.7,1.1,1.1
		c0.8,0.8,1.5,1.6,2.3,2.3c4.2,4.1,10.5,4.2,14.7,0.3c1.6-1.5,3.2-3.1,4.7-4.7c0.6-0.6,1.3-1.3,1.9-2c0.1-0.1,0.3-0.3,0.3-0.5
		c0-1,0-1.9,0-2.9C57.6,16.5,57.6,16.2,57.6,15.9L57.6,15.9z"/>
	<path class="st7" d="M29.3,18.5c0.3-0.3,0.5-0.7,0.5-1.1c0-0.4-0.2-0.8-0.4-1.1c-0.3-0.3-0.7-0.4-1.1-0.4c0,0,0,0,0,0
		c-0.4,0-0.8,0.2-1.1,0.5c-0.3,0.3-0.4,0.7-0.4,1.1c0,0.8,0.7,1.5,1.5,1.5c0,0,0,0,0,0C28.6,18.9,29,18.7,29.3,18.5z"/>
</g>
<g>
	<path class="st7" d="M70.4,13.5v10.1c1.1-1.1,2.3-1.7,3.7-1.7c1.6,0,2.9,0.6,4,1.8c1.1,1.2,1.6,2.7,1.6,4.5c0,1.8-0.5,3.4-1.6,4.5
		c-1.1,1.2-2.4,1.8-4,1.8c-1.4,0-2.6-0.5-3.7-1.6v1.2h-2.8V13.5H70.4z M77,28.3c0-1.1-0.3-2.1-0.9-2.8c-0.6-0.7-1.4-1.1-2.4-1.1
		c-1,0-1.8,0.4-2.5,1.1c-0.6,0.7-0.9,1.6-0.9,2.7c0,1.2,0.3,2.1,0.9,2.8c0.6,0.7,1.4,1.1,2.4,1.1c1,0,1.7-0.4,2.4-1.1
		C76.7,30.2,77,29.3,77,28.3z"/>
	<path class="st7" d="M92.6,28.8H84c0.1,1,0.4,1.8,1,2.3c0.6,0.6,1.3,0.9,2.2,0.9c0.7,0,1.3-0.2,1.7-0.5c0.4-0.3,0.9-0.9,1.5-1.8
		l2.3,1.3c-0.4,0.6-0.7,1.1-1.1,1.6s-0.8,0.8-1.3,1.1c-0.5,0.3-0.9,0.5-1.5,0.6c-0.5,0.1-1.1,0.2-1.7,0.2c-1.8,0-3.2-0.6-4.3-1.7
		c-1.1-1.1-1.6-2.7-1.6-4.6c0-1.9,0.5-3.4,1.6-4.6c1.1-1.1,2.4-1.7,4.2-1.7c1.8,0,3.1,0.6,4.2,1.7c1,1.1,1.5,2.6,1.5,4.6L92.6,28.8z
		 M89.7,26.6c-0.4-1.5-1.3-2.2-2.8-2.2c-0.3,0-0.6,0.1-0.9,0.2c-0.3,0.1-0.6,0.2-0.8,0.4c-0.2,0.2-0.4,0.4-0.6,0.7
		c-0.2,0.3-0.3,0.6-0.4,0.9H89.7z"/>
	<path class="st7" d="M103.4,22.2h2.8v11.9h-2.8v-1.2c-1.1,1.1-2.4,1.6-3.7,1.6c-1.6,0-3-0.6-4.1-1.8C94.5,31.5,94,30,94,28.1
		c0-1.8,0.5-3.3,1.6-4.5c1.1-1.2,2.4-1.8,4-1.8c1.4,0,2.6,0.6,3.7,1.7V22.2z M96.8,28.1c0,1.1,0.3,2.1,0.9,2.8
		c0.6,0.7,1.4,1.1,2.4,1.1c1,0,1.8-0.4,2.5-1.1c0.6-0.7,0.9-1.6,0.9-2.8c0-1.1-0.3-2-0.9-2.8c-0.6-0.7-1.4-1.1-2.4-1.1
		c-0.9,0-1.7,0.4-2.4,1.1C97.1,26.2,96.8,27.1,96.8,28.1z"/>
	<path class="st7" d="M113.4,24.8v9.3h-2.8v-9.3h-1.2v-2.6h1.2v-4.4h2.8v4.4h1.1v2.6H113.4z"/>
	<path class="st7" d="M117.7,17.3c0-0.5,0.2-0.9,0.5-1.2c0.4-0.4,0.8-0.5,1.3-0.5c0.5,0,0.9,0.2,1.3,0.5c0.4,0.3,0.5,0.8,0.5,1.3
		s-0.2,0.9-0.5,1.3c-0.3,0.4-0.8,0.5-1.3,0.5c-0.5,0-0.9-0.2-1.3-0.5C117.9,18.2,117.7,17.8,117.7,17.3z M120.9,22.2v11.9h-2.8V22.2
		H120.9z"/>
	<path class="st7" d="M127.5,24.8v9.3h-2.8v-9.3h-1.2v-2.6h1.2v-4.4h2.8v4.4h1.1v2.6H127.5z"/>
	<path class="st7" d="M134.3,22.2v6.8c0,2,0.8,3,2.3,3c1.6,0,2.3-1,2.3-3v-6.8h2.8v6.9c0,1-0.1,1.8-0.4,2.5
		c-0.2,0.6-0.6,1.2-1.2,1.7c-0.9,0.8-2.1,1.2-3.5,1.2c-1.4,0-2.6-0.4-3.5-1.2c-0.6-0.5-1-1.1-1.2-1.7c-0.2-0.6-0.3-1.4-0.3-2.5v-6.9
		H134.3z"/>
	<path class="st7" d="M153.1,13.5h2.5v20.7h-2.5v-1.2c-1.1,1.1-2.3,1.6-3.7,1.6c-1.6,0-3-0.6-4.1-1.8c-1.1-1.2-1.6-2.7-1.6-4.5
		c0-1.8,0.5-3.3,1.6-4.5c1.1-1.2,2.4-1.8,4-1.8c1.4,0,2.6,0.6,3.7,1.7V13.5z M146.6,28.1c0,1.1,0.3,2.1,0.9,2.8
		c0.6,0.7,1.4,1.1,2.4,1.1c1,0,1.8-0.4,2.5-1.1c0.6-0.7,0.9-1.6,0.9-2.8c0-1.1-0.3-2-0.9-2.8c-0.6-0.7-1.4-1.1-2.4-1.1
		c-0.9,0-1.7,0.4-2.4,1.1C146.9,26.2,146.6,27.1,146.6,28.1z"/>
</g>
</svg>
